<svg xmlns="http://www.w3.org/2000/svg" viewBox="0 0 97 93" fill="none">
  <path fill="#0392F1" d="M81.614 84.281 72.546 93 56.229 77.374c-2.097-2.045-4.892-3.176-7.865-3.176s-5.762 1.125-7.866 3.176L24.182 93l-9.069-8.719L33.25 66.844h30.227L81.614 84.28ZM27.205 31.97v29.06L9.068 78.47 0 69.75l16.252-15.688c2.133-2.023 3.303-4.704 3.303-7.562s-1.176-5.545-3.303-7.563L0 23.25l9.068-8.719zm69.523-8.719L80.476 38.938c-2.127 2.017-3.303 4.704-3.303 7.562s1.17 5.54 3.303 7.563L96.728 69.75l-9.069 8.719L69.523 61.03V31.97L87.66 14.53l9.069 8.719ZM81.614 8.719 63.477 26.156H33.25L15.113 8.72 24.182 0l16.316 15.626c2.104 2.051 4.894 3.176 7.866 3.176 2.973 0 5.768-1.131 7.866-3.176L72.546 0z"/>
</svg>
