<svg xmlns="http://www.w3.org/2000/svg" width="488" height="93" fill="none"><path fill="#0392F1" d="M81.614 84.281 72.546 93 56.229 77.374c-2.097-2.045-4.892-3.176-7.865-3.176s-5.762 1.125-7.866 3.176L24.182 93l-9.069-8.719L33.25 66.844h30.227L81.614 84.28ZM27.205 31.97v29.06L9.068 78.47 0 69.75l16.252-15.688c2.133-2.023 3.303-4.704 3.303-7.562s-1.176-5.545-3.303-7.563L0 23.25l9.068-8.719zm69.523-8.719L80.476 38.938c-2.127 2.017-3.303 4.704-3.303 7.562s1.17 5.54 3.303 7.563L96.728 69.75l-9.069 8.719L69.523 61.03V31.97L87.66 14.53l9.069 8.719ZM81.614 8.719 63.477 26.156H33.25L15.113 8.72 24.182 0l16.316 15.626c2.104 2.051 4.894 3.176 7.866 3.176 2.973 0 5.768-1.131 7.866-3.176L72.546 0z"/><path fill="#000" d="M431.795 66.626v-30.74h6.648v30.74zm-.976-40.132c0-2.44 1.83-4.33 4.269-4.33 2.501 0 4.392 1.89 4.392 4.33 0 2.379-1.891 4.27-4.392 4.27-2.439 0-4.269-1.891-4.269-4.27m-33.62 40.132V23.933h28.238v6.22h-21.102v11.223h17.138v6.22h-17.138v19.03zm-20.829.487c-9.21 0-15.431-6.404-15.431-15.857 0-9.454 6.221-15.858 15.431-15.858 7.562 0 12.991 4.026 14.027 10.369l-6.465 1.28c-.609-3.476-3.476-5.854-7.379-5.854-5.306 0-8.722 3.964-8.722 10.063s3.477 10.063 8.722 10.063c3.903 0 6.648-2.134 7.379-5.733l6.526 1.28c-1.28 6.405-6.587 10.247-14.088 10.247m-28.737-.487v-30.74h6.648v30.74zm-.976-40.132c0-2.44 1.83-4.33 4.269-4.33 2.501 0 4.392 1.89 4.392 4.33 0 2.379-1.891 4.27-4.392 4.27-2.439 0-4.269-1.891-4.269-4.27m-5.046 39.888c-1.464.488-3.172.732-4.88.732-5.794 0-10.124-3.172-10.124-10.186v-15.37h-5.367v-5.671h5.367v-9.149h6.648v9.149h7.929v5.672h-7.929v15.003c0 3.05 1.708 4.636 4.208 4.636 1.159 0 2.562-.183 3.721-.732zm-53.695-15.126c0-8.294 5.245-15.857 15.003-15.857 9.881 0 15.126 7.197 15.126 14.698 0 .915-.061 2.196-.122 2.745h-23.481c.61 5.306 4.025 8.6 8.904 8.6 4.026 0 6.892-1.891 7.685-5.246l6.282 1.586c-1.647 5.916-6.892 9.332-14.089 9.332-9.758 0-15.308-7.563-15.308-15.858m6.831-3.476h16.223c-.427-4.148-3.171-7.136-8.051-7.136-4.208 0-7.196 2.561-8.172 7.136m-41.638 18.846V23.445h6.648v17.748c2.135-3.843 5.733-5.794 10.063-5.794 6.953 0 11.528 4.33 11.528 11.039v20.188H274.7V47.963c0-4.087-2.562-6.587-6.709-6.587-5.123 0-8.234 4.452-8.234 11.954v13.296zm-7.097-.244c-1.464.488-3.171.732-4.879.732-5.794 0-10.125-3.172-10.125-10.186v-15.37h-5.367v-5.671h5.367v-9.149h6.648v9.149h7.929v5.672h-7.929v15.003c0 3.05 1.708 4.636 4.209 4.636 1.159 0 2.561-.183 3.72-.732zm-52.465.243V35.886h6.648v5.123c2.073-3.293 5.611-5.61 10.124-5.61 6.526 0 11.1 4.33 11.1 10.978v20.248h-6.648V47.901c0-3.842-2.378-6.526-6.282-6.526-5.184 0-8.294 4.392-8.294 11.772v13.478zm-11.736-30.739h6.831l-16.162 41.84h-6.831l4.635-12.015-11.954-29.825h7.197l8.05 21.286zm-41.838 31.228c-8.295 0-15.126-5.49-16.345-13.296l6.526-2.013c.732 5.49 4.94 9.087 10.063 9.087 5.062 0 8.356-2.378 8.356-6.038 0-10.124-23.36-4.574-23.36-19.943 0-6.77 6.282-11.466 14.638-11.466 7.99 0 14.272 4.269 15.492 10.673l-6.404 2.622c-.854-4.33-4.209-7.074-9.088-7.074-4.635 0-7.441 1.951-7.441 5.245 0 8.6 23.42 2.622 23.42 19.822 0 7.44-6.282 12.38-15.857 12.38ZM458.95 48.75q3 0 5.35 1.35 2.4 1.35 3.7 3.75 1.35 2.35 1.35 5.35T468 64.6q-1.3 2.35-3.7 3.7-2.35 1.35-5.35 1.35t-5.4-1.35a9.85 9.85 0 0 1-3.7-3.7q-1.35-2.4-1.35-5.4t1.35-5.35q1.35-2.4 3.7-3.75 2.4-1.35 5.4-1.35m0 18.6q3.6 0 5.75-2.25 2.2-2.25 2.2-5.9t-2.2-5.9q-2.15-2.25-5.75-2.25-3.65 0-5.8 2.25T451 59.2t2.15 5.9 5.8 2.25m4.6-10.15q0 1.1-.55 1.95a3.36 3.36 0 0 1-1.5 1.2l2.65 4.1h-3.8l-2.2-3.75h-.35v3.75h-3.15V53.7h5.05q1.75 0 2.8 1 1.05.95 1.05 2.5m-5.75.95h1.7q.4 0 .65-.2.3-.25.3-.65c0-.4-.1-.467-.3-.6q-.25-.2-.65-.2h-1.7z"/></svg>